<?xml version="1.0" encoding="UTF-8" standalone="no"?>
<svg width="251.178mm" height="53.6222mm"
 xmlns="http://www.w3.org/2000/svg" xmlns:xlink="http://www.w3.org/1999/xlink"  version="1.2" baseProfile="tiny">
<title>Qt SVG Document</title>
<desc>Generated with Qt</desc>
<defs>
</defs>
<g fill="none" stroke="black" stroke-width="1" fill-rule="evenodd" stroke-linecap="square" stroke-linejoin="bevel" >

<g fill="none" stroke="#000000" stroke-opacity="1" stroke-width="1" stroke-linecap="square" stroke-linejoin="bevel" transform="matrix(1,0,0,1,0,0)"
font-family="Ubuntu" font-size="11" font-weight="400" font-style="normal" 
>
</g>

<g fill="none" stroke="#000000" stroke-opacity="1" stroke-width="1" stroke-linecap="square" stroke-linejoin="bevel" transform="matrix(1,0,0,1,0,0)"
font-family="Ubuntu" font-size="11" font-weight="400" font-style="normal" 
>
</g>

<g fill="none" stroke="#000000" stroke-opacity="1" stroke-width="1" stroke-linecap="square" stroke-linejoin="bevel" transform="matrix(1.99897,0,0,1.99897,-14.9923,166.914)"
font-family="Ubuntu" font-size="11" font-weight="400" font-style="normal" 
>
</g>

<g fill="#ffffff" fill-opacity="1" stroke="none" transform="matrix(1.99897,0,0,1.99897,-14.9923,166.914)"
font-family="Ubuntu" font-size="11" font-weight="400" font-style="normal" 
>
<rect x="7.5" y="-83.5" width="356.184" height="76"/>
</g>

<g fill="none" stroke="#000000" stroke-opacity="1" stroke-width="1" stroke-linecap="square" stroke-linejoin="bevel" transform="matrix(1.99897,0,0,1.99897,-14.9923,166.914)"
font-family="Ubuntu" font-size="11" font-weight="400" font-style="normal" 
>
</g>

<g fill="none" stroke="#000000" stroke-opacity="1" stroke-width="1" stroke-linecap="square" stroke-linejoin="bevel" transform="matrix(1.99897,0,0,1.99897,-14.9923,166.914)"
font-family="Ubuntu" font-size="11" font-weight="400" font-style="normal" 
>
</g>

<g fill="none" stroke="#000000" stroke-opacity="1" stroke-width="1" stroke-linecap="square" stroke-linejoin="bevel" transform="matrix(1.99897,0,0,1.99897,-14.9923,166.914)"
font-family="Ubuntu" font-size="11" font-weight="400" font-style="normal" 
>
</g>

<g fill="none" stroke="#000000" stroke-opacity="1" stroke-width="1" stroke-linecap="square" stroke-linejoin="bevel" transform="matrix(1.99897,0,0,1.99897,-14.9923,166.914)"
font-family="Ubuntu" font-size="11" font-weight="400" font-style="normal" 
>
</g>

<g fill="none" stroke="#000000" stroke-opacity="1" stroke-width="1" stroke-linecap="square" stroke-linejoin="round" transform="matrix(1.99897,0,0,1.99897,-14.9923,166.914)"
font-family="Ubuntu" font-size="11" font-weight="400" font-style="normal" 
>
<rect x="8" y="-83" width="180" height="75"/>
</g>

<g fill="none" stroke="#000000" stroke-opacity="1" stroke-width="1" stroke-linecap="square" stroke-linejoin="bevel" transform="matrix(1.99897,0,0,1.99897,-14.9923,166.914)"
font-family="Ubuntu" font-size="11" font-weight="400" font-style="normal" 
>
</g>

<g fill="none" stroke="#000000" stroke-opacity="1" stroke-width="1" stroke-linecap="square" stroke-linejoin="bevel" transform="matrix(1.99897,0,0,1.99897,128.59,9.99483)"
font-family="Ubuntu" font-size="11" font-weight="400" font-style="normal" 
>
</g>

<g fill="none" stroke="#000000" stroke-opacity="1" stroke-width="1" stroke-linecap="square" stroke-linejoin="bevel" transform="matrix(1.99897,0,0,1.99897,128.59,9.99483)"
font-family="sans" font-size="11" font-weight="100" font-style="normal" 
>
</g>

<g fill="#000000" fill-opacity="1" stroke="#000000" stroke-opacity="1" stroke-width="1" stroke-linecap="square" stroke-linejoin="round" transform="matrix(1.99897,0,0,1.99897,128.59,9.99483)"
font-family="sans" font-size="11" font-weight="100" font-style="normal" 
>
<path vector-effect="none" fill-rule="nonzero" d="M2.79688,2.98438 L3.70313,2.98438 L0.90625,12.0156 L0,12.0156 L2.79688,2.98438 M4.64063,8.625 L4.64063,4.98438 L5.625,4.98438 L5.625,8.59375 C5.625,9.15625 5.73698,9.58073 5.96094,9.86719 C6.1849,10.1536 6.51563,10.2969 6.95313,10.2969 C7.49479,10.2969 7.91927,10.1276 8.22656,9.78906 C8.53385,9.45052 8.6875,8.98438 8.6875,8.39063 L8.6875,4.98438 L9.67188,4.98438 L9.67188,11 L8.6875,11 L8.6875,10.0781 C8.44792,10.4427 8.16927,10.7135 7.85156,10.8906 C7.53385,11.0677 7.16667,11.1563 6.75,11.1563 C6.0625,11.1563 5.53906,10.9401 5.17969,10.5078 C4.82031,10.0755 4.64063,9.44792 4.64063,8.625 M15.5469,5.15625 L15.5469,6.09375 C15.2656,5.94792 14.974,5.84115 14.6719,5.77344 C14.3698,5.70573 14.0573,5.67188 13.7344,5.67188 C13.2448,5.67188 12.8776,5.7474 12.6328,5.89844 C12.388,6.04948 12.2656,6.27083 12.2656,6.5625 C12.2656,6.79167 12.3542,6.97135 12.5313,7.10156 C12.7083,7.23177 13.0625,7.35938 13.5938,7.48438 L13.9219,7.5625 C14.6302,7.70833 15.1302,7.91927 15.4219,8.19531 C15.7135,8.47135 15.8594,8.85417 15.8594,9.34375 C15.8594,9.89583 15.6406,10.3359 15.2031,10.6641 C14.7656,10.9922 14.1563,11.1563 13.375,11.1563 C13.0521,11.1563 12.7161,11.125 12.3672,11.0625 C12.0182,11 11.651,10.9063 11.2656,10.7813 L11.2656,9.76563 C11.6302,9.95313 11.9896,10.0938 12.3438,10.1875 C12.6979,10.2813 13.0521,10.3281 13.4063,10.3281 C13.8646,10.3281 14.2188,10.2474 14.4688,10.0859 C14.7188,9.92448 14.8438,9.70313 14.8438,9.42188 C14.8438,9.15104 14.7552,8.94271 14.5781,8.79688 C14.401,8.65104 14.0052,8.51563 13.3906,8.39063 L13.0469,8.29688 C12.4323,8.17188 11.9896,7.97656 11.7188,7.71094 C11.4479,7.44531 11.3125,7.07813 11.3125,6.60938 C11.3125,6.04688 11.513,5.61198 11.9141,5.30469 C12.3151,4.9974 12.8854,4.84375 13.625,4.84375 C13.9896,4.84375 14.3333,4.86979 14.6563,4.92188 C14.9792,4.97396 15.276,5.05208 15.5469,5.15625 M21.75,8 C21.75,7.27083 21.599,6.70052 21.2969,6.28906 C20.9948,5.8776 20.5833,5.67188 20.0625,5.67188 C19.5417,5.67188 19.1328,5.8776 18.8359,6.28906 C18.5391,6.70052 18.3906,7.27083 18.3906,8 C18.3906,8.72917 18.5391,9.29948 18.8359,9.71094 C19.1328,10.1224 19.5417,10.3281 20.0625,10.3281 C20.5833,10.3281 20.9948,10.1224 21.2969,9.71094 C21.599,9.29948 21.75,8.72917 21.75,8 M18.3906,5.89063 C18.5885,5.53646 18.8464,5.27344 19.1641,5.10156 C19.4818,4.92969 19.8646,4.84375 20.3125,4.84375 C21.0417,4.84375 21.6328,5.13281 22.0859,5.71094 C22.5391,6.28906 22.7656,7.05208 22.7656,8 C22.7656,8.94792 22.5391,9.71094 22.0859,10.2891 C21.6328,10.8672 21.0417,11.1563 20.3125,11.1563 C19.8646,11.1563 19.4818,11.0703 19.1641,10.8984 C18.8464,10.7266 18.5885,10.4583 18.3906,10.0938 L18.3906,11 L17.3906,11 L17.3906,2.64063 L18.3906,2.64063 L18.3906,5.89063 M28.9688,12.8281 L28.9688,13.5938 L23.25,13.5938 L23.25,12.8281 L28.9688,12.8281 M34.2188,5.21875 L34.2188,6.14063 C33.9479,5.98438 33.6719,5.86719 33.3906,5.78906 C33.1094,5.71094 32.8229,5.67188 32.5313,5.67188 C31.8958,5.67188 31.401,5.875 31.0469,6.28125 C30.6927,6.6875 30.5156,7.26042 30.5156,8 C30.5156,8.72917 30.6927,9.29688 31.0469,9.70313 C31.401,10.1094 31.8958,10.3125 32.5313,10.3125 C32.8229,10.3125 33.1094,10.276 33.3906,10.2031 C33.6719,10.1302 33.9479,10.0156 34.2188,9.85938 L34.2188,10.7656 C33.9479,10.901 33.6641,11 33.3672,11.0625 C33.0703,11.125 32.7552,11.1563 32.4219,11.1563 C31.5156,11.1563 30.7969,10.8724 30.2656,10.3047 C29.7344,9.73698 29.4688,8.96875 29.4688,8 C29.4688,7.02083 29.737,6.25 30.2734,5.6875 C30.8099,5.125 31.5469,4.84375 32.4844,4.84375 C32.7969,4.84375 33.0964,4.875 33.3828,4.9375 C33.6693,5 33.9479,5.09375 34.2188,5.21875 M38.6719,7.96875 C37.8802,7.96875 37.3307,8.0625 37.0234,8.25 C36.7161,8.4375 36.5625,8.75 36.5625,9.1875 C36.5625,9.53125 36.6771,9.80729 36.9063,10.0156 C37.1354,10.224 37.4479,10.3281 37.8438,10.3281 C38.3958,10.3281 38.8359,10.1328 39.1641,9.74219 C39.4922,9.35156 39.6563,8.83854 39.6563,8.20313 L39.6563,7.96875 L38.6719,7.96875 M40.6406,7.5625 L40.6406,11 L39.6563,11 L39.6563,10.0938 C39.4375,10.4583 39.1589,10.7266 38.8203,10.8984 C38.4818,11.0703 38.0677,11.1563 37.5781,11.1563 C36.9635,11.1563 36.474,10.9844 36.1094,10.6406 C35.7448,10.2969 35.5625,9.83333 35.5625,9.25 C35.5625,8.57292 35.7891,8.0625 36.2422,7.71875 C36.6953,7.375 37.375,7.20313 38.2813,7.20313 L39.6563,7.20313 L39.6563,7.10938 C39.6563,6.65104 39.5078,6.29688 39.2109,6.04688 C38.9141,5.79688 38.4948,5.67188 37.9531,5.67188 C37.6094,5.67188 37.2734,5.71354 36.9453,5.79688 C36.6172,5.88021 36.3021,6.00521 36,6.17188 L36,5.26563 C36.3646,5.11979 36.7188,5.01302 37.0625,4.94531 C37.4063,4.8776 37.7344,4.84375 38.0469,4.84375 C38.9219,4.84375 39.5729,5.06771 40,5.51563 C40.4271,5.96354 40.6406,6.64583 40.6406,7.5625 M47.3594,6.14063 C47.6094,5.69271 47.9063,5.36458 48.25,5.15625 C48.5938,4.94792 49,4.84375 49.4688,4.84375 C50.0938,4.84375 50.5755,5.0625 50.9141,5.5 C51.2526,5.9375 51.4219,6.5625 51.4219,7.375 L51.4219,11 L50.4219,11 L50.4219,7.40625 C50.4219,6.82292 50.3203,6.39323 50.1172,6.11719 C49.9141,5.84115 49.6042,5.70313 49.1875,5.70313 C48.6771,5.70313 48.2734,5.8724 47.9766,6.21094 C47.6797,6.54948 47.5313,7.01042 47.5313,7.59375 L47.5313,11 L46.5313,11 L46.5313,7.40625 C46.5313,6.82292 46.4297,6.39323 46.2266,6.11719 C46.0234,5.84115 45.7083,5.70313 45.2813,5.70313 C44.7813,5.70313 44.3828,5.8724 44.0859,6.21094 C43.7891,6.54948 43.6406,7.01042 43.6406,7.59375 L43.6406,11 L42.6406,11 L42.6406,4.98438 L43.6406,4.98438 L43.6406,5.92188 C43.8594,5.54688 44.1276,5.27344 44.4453,5.10156 C44.763,4.92969 45.1354,4.84375 45.5625,4.84375 C46,4.84375 46.3724,4.95313 46.6797,5.17188 C46.987,5.39063 47.2135,5.71354 47.3594,6.14063 "/>
</g>

<g fill="none" stroke="#000000" stroke-opacity="1" stroke-width="1" stroke-linecap="square" stroke-linejoin="bevel" transform="matrix(1.99897,0,0,1.99897,128.59,9.99483)"
font-family="sans" font-size="11" font-weight="100" font-style="normal" 
>
</g>

<g fill="none" stroke="#000000" stroke-opacity="1" stroke-width="1" stroke-linecap="square" stroke-linejoin="bevel" transform="matrix(1.99897,0,0,1.99897,128.59,9.99483)"
font-family="Ubuntu" font-size="11" font-weight="400" font-style="normal" 
>
</g>

<g fill="none" stroke="#000000" stroke-opacity="1" stroke-width="1" stroke-linecap="square" stroke-linejoin="bevel" transform="matrix(1.99897,0,0,1.99897,-14.9923,166.914)"
font-family="Ubuntu" font-size="11" font-weight="400" font-style="normal" 
>
</g>

<g fill="none" stroke="#000000" stroke-opacity="1" stroke-width="1" stroke-linecap="square" stroke-linejoin="bevel" transform="matrix(1.99897,0,0,1.99897,-14.9923,166.914)"
font-family="Ubuntu" font-size="11" font-weight="400" font-style="normal" 
>
</g>

<g fill="none" stroke="#000000" stroke-opacity="1" stroke-width="1" stroke-linecap="square" stroke-linejoin="bevel" transform="matrix(1.99897,0,0,1.99897,-14.9923,166.914)"
font-family="Ubuntu" font-size="11" font-weight="400" font-style="normal" 
>
</g>

<g fill="none" stroke="#000000" stroke-opacity="1" stroke-width="1" stroke-linecap="square" stroke-linejoin="round" transform="matrix(1.99897,0,0,1.99897,-14.9923,166.914)"
font-family="Ubuntu" font-size="11" font-weight="400" font-style="normal" 
>
<rect x="16.4992" y="-51.5" width="163.002" height="35"/>
</g>

<g fill="none" stroke="#000000" stroke-opacity="1" stroke-width="1" stroke-linecap="square" stroke-linejoin="bevel" transform="matrix(1.99897,0,0,1.99897,-14.9923,166.914)"
font-family="Ubuntu" font-size="11" font-weight="400" font-style="normal" 
>
</g>

<g fill="none" stroke="#000000" stroke-opacity="1" stroke-width="1" stroke-linecap="square" stroke-linejoin="bevel" transform="matrix(1.99897,0,0,1.99897,64.9664,84.9561)"
font-family="Ubuntu" font-size="11" font-weight="400" font-style="normal" 
>
</g>

<g fill="none" stroke="#000000" stroke-opacity="1" stroke-width="1" stroke-linecap="square" stroke-linejoin="bevel" transform="matrix(1.99897,0,0,1.99897,64.9664,84.9561)"
font-family="sans" font-size="11" font-weight="100" font-style="normal" 
>
</g>

<g fill="#000000" fill-opacity="1" stroke="#000000" stroke-opacity="1" stroke-width="1" stroke-linecap="square" stroke-linejoin="round" transform="matrix(1.99897,0,0,1.99897,64.9664,84.9561)"
font-family="sans" font-size="11" font-weight="100" font-style="normal" 
>
<path vector-effect="none" fill-rule="nonzero" d="M2.79688,2.98438 L3.70313,2.98438 L0.90625,12.0156 L0,12.0156 L2.79688,2.98438 M4.64063,8.625 L4.64063,4.98438 L5.625,4.98438 L5.625,8.59375 C5.625,9.15625 5.73698,9.58073 5.96094,9.86719 C6.1849,10.1536 6.51563,10.2969 6.95313,10.2969 C7.49479,10.2969 7.91927,10.1276 8.22656,9.78906 C8.53385,9.45052 8.6875,8.98438 8.6875,8.39063 L8.6875,4.98438 L9.67188,4.98438 L9.67188,11 L8.6875,11 L8.6875,10.0781 C8.44792,10.4427 8.16927,10.7135 7.85156,10.8906 C7.53385,11.0677 7.16667,11.1563 6.75,11.1563 C6.0625,11.1563 5.53906,10.9401 5.17969,10.5078 C4.82031,10.0755 4.64063,9.44792 4.64063,8.625 M15.5469,5.15625 L15.5469,6.09375 C15.2656,5.94792 14.974,5.84115 14.6719,5.77344 C14.3698,5.70573 14.0573,5.67188 13.7344,5.67188 C13.2448,5.67188 12.8776,5.7474 12.6328,5.89844 C12.388,6.04948 12.2656,6.27083 12.2656,6.5625 C12.2656,6.79167 12.3542,6.97135 12.5313,7.10156 C12.7083,7.23177 13.0625,7.35938 13.5938,7.48438 L13.9219,7.5625 C14.6302,7.70833 15.1302,7.91927 15.4219,8.19531 C15.7135,8.47135 15.8594,8.85417 15.8594,9.34375 C15.8594,9.89583 15.6406,10.3359 15.2031,10.6641 C14.7656,10.9922 14.1563,11.1563 13.375,11.1563 C13.0521,11.1563 12.7161,11.125 12.3672,11.0625 C12.0182,11 11.651,10.9063 11.2656,10.7813 L11.2656,9.76563 C11.6302,9.95313 11.9896,10.0938 12.3438,10.1875 C12.6979,10.2813 13.0521,10.3281 13.4063,10.3281 C13.8646,10.3281 14.2188,10.2474 14.4688,10.0859 C14.7188,9.92448 14.8438,9.70313 14.8438,9.42188 C14.8438,9.15104 14.7552,8.94271 14.5781,8.79688 C14.401,8.65104 14.0052,8.51563 13.3906,8.39063 L13.0469,8.29688 C12.4323,8.17188 11.9896,7.97656 11.7188,7.71094 C11.4479,7.44531 11.3125,7.07813 11.3125,6.60938 C11.3125,6.04688 11.513,5.61198 11.9141,5.30469 C12.3151,4.9974 12.8854,4.84375 13.625,4.84375 C13.9896,4.84375 14.3333,4.86979 14.6563,4.92188 C14.9792,4.97396 15.276,5.05208 15.5469,5.15625 M21.75,8 C21.75,7.27083 21.599,6.70052 21.2969,6.28906 C20.9948,5.8776 20.5833,5.67188 20.0625,5.67188 C19.5417,5.67188 19.1328,5.8776 18.8359,6.28906 C18.5391,6.70052 18.3906,7.27083 18.3906,8 C18.3906,8.72917 18.5391,9.29948 18.8359,9.71094 C19.1328,10.1224 19.5417,10.3281 20.0625,10.3281 C20.5833,10.3281 20.9948,10.1224 21.2969,9.71094 C21.599,9.29948 21.75,8.72917 21.75,8 M18.3906,5.89063 C18.5885,5.53646 18.8464,5.27344 19.1641,5.10156 C19.4818,4.92969 19.8646,4.84375 20.3125,4.84375 C21.0417,4.84375 21.6328,5.13281 22.0859,5.71094 C22.5391,6.28906 22.7656,7.05208 22.7656,8 C22.7656,8.94792 22.5391,9.71094 22.0859,10.2891 C21.6328,10.8672 21.0417,11.1563 20.3125,11.1563 C19.8646,11.1563 19.4818,11.0703 19.1641,10.8984 C18.8464,10.7266 18.5885,10.4583 18.3906,10.0938 L18.3906,11 L17.3906,11 L17.3906,2.64063 L18.3906,2.64063 L18.3906,5.89063 M28.9688,12.8281 L28.9688,13.5938 L23.25,13.5938 L23.25,12.8281 L28.9688,12.8281 M34.2188,5.21875 L34.2188,6.14063 C33.9479,5.98438 33.6719,5.86719 33.3906,5.78906 C33.1094,5.71094 32.8229,5.67188 32.5313,5.67188 C31.8958,5.67188 31.401,5.875 31.0469,6.28125 C30.6927,6.6875 30.5156,7.26042 30.5156,8 C30.5156,8.72917 30.6927,9.29688 31.0469,9.70313 C31.401,10.1094 31.8958,10.3125 32.5313,10.3125 C32.8229,10.3125 33.1094,10.276 33.3906,10.2031 C33.6719,10.1302 33.9479,10.0156 34.2188,9.85938 L34.2188,10.7656 C33.9479,10.901 33.6641,11 33.3672,11.0625 C33.0703,11.125 32.7552,11.1563 32.4219,11.1563 C31.5156,11.1563 30.7969,10.8724 30.2656,10.3047 C29.7344,9.73698 29.4688,8.96875 29.4688,8 C29.4688,7.02083 29.737,6.25 30.2734,5.6875 C30.8099,5.125 31.5469,4.84375 32.4844,4.84375 C32.7969,4.84375 33.0964,4.875 33.3828,4.9375 C33.6693,5 33.9479,5.09375 34.2188,5.21875 M38.6719,7.96875 C37.8802,7.96875 37.3307,8.0625 37.0234,8.25 C36.7161,8.4375 36.5625,8.75 36.5625,9.1875 C36.5625,9.53125 36.6771,9.80729 36.9063,10.0156 C37.1354,10.224 37.4479,10.3281 37.8438,10.3281 C38.3958,10.3281 38.8359,10.1328 39.1641,9.74219 C39.4922,9.35156 39.6563,8.83854 39.6563,8.20313 L39.6563,7.96875 L38.6719,7.96875 M40.6406,7.5625 L40.6406,11 L39.6563,11 L39.6563,10.0938 C39.4375,10.4583 39.1589,10.7266 38.8203,10.8984 C38.4818,11.0703 38.0677,11.1563 37.5781,11.1563 C36.9635,11.1563 36.474,10.9844 36.1094,10.6406 C35.7448,10.2969 35.5625,9.83333 35.5625,9.25 C35.5625,8.57292 35.7891,8.0625 36.2422,7.71875 C36.6953,7.375 37.375,7.20313 38.2813,7.20313 L39.6563,7.20313 L39.6563,7.10938 C39.6563,6.65104 39.5078,6.29688 39.2109,6.04688 C38.9141,5.79688 38.4948,5.67188 37.9531,5.67188 C37.6094,5.67188 37.2734,5.71354 36.9453,5.79688 C36.6172,5.88021 36.3021,6.00521 36,6.17188 L36,5.26563 C36.3646,5.11979 36.7188,5.01302 37.0625,4.94531 C37.4063,4.8776 37.7344,4.84375 38.0469,4.84375 C38.9219,4.84375 39.5729,5.06771 40,5.51563 C40.4271,5.96354 40.6406,6.64583 40.6406,7.5625 M47.3594,6.14063 C47.6094,5.69271 47.9063,5.36458 48.25,5.15625 C48.5938,4.94792 49,4.84375 49.4688,4.84375 C50.0938,4.84375 50.5755,5.0625 50.9141,5.5 C51.2526,5.9375 51.4219,6.5625 51.4219,7.375 L51.4219,11 L50.4219,11 L50.4219,7.40625 C50.4219,6.82292 50.3203,6.39323 50.1172,6.11719 C49.9141,5.84115 49.6042,5.70313 49.1875,5.70313 C48.6771,5.70313 48.2734,5.8724 47.9766,6.21094 C47.6797,6.54948 47.5313,7.01042 47.5313,7.59375 L47.5313,11 L46.5313,11 L46.5313,7.40625 C46.5313,6.82292 46.4297,6.39323 46.2266,6.11719 C46.0234,5.84115 45.7083,5.70313 45.2813,5.70313 C44.7813,5.70313 44.3828,5.8724 44.0859,6.21094 C43.7891,6.54948 43.6406,7.01042 43.6406,7.59375 L43.6406,11 L42.6406,11 L42.6406,4.98438 L43.6406,4.98438 L43.6406,5.92188 C43.8594,5.54688 44.1276,5.27344 44.4453,5.10156 C44.763,4.92969 45.1354,4.84375 45.5625,4.84375 C46,4.84375 46.3724,4.95313 46.6797,5.17188 C46.987,5.39063 47.2135,5.71354 47.3594,6.14063 M55.1406,2.98438 L56.0469,2.98438 L53.25,12.0156 L52.3438,12.0156 L55.1406,2.98438 M57.0781,4.98438 L58.0781,4.98438 L58.0781,11 L57.0781,11 L57.0781,4.98438 M57.0781,2.64063 L58.0781,2.64063 L58.0781,3.89063 L57.0781,3.89063 L57.0781,2.64063 M64.8125,6.14063 C65.0625,5.69271 65.3594,5.36458 65.7031,5.15625 C66.0469,4.94792 66.4531,4.84375 66.9219,4.84375 C67.5469,4.84375 68.0286,5.0625 68.3672,5.5 C68.7057,5.9375 68.875,6.5625 68.875,7.375 L68.875,11 L67.875,11 L67.875,7.40625 C67.875,6.82292 67.7734,6.39323 67.5703,6.11719 C67.3672,5.84115 67.0573,5.70313 66.6406,5.70313 C66.1302,5.70313 65.7266,5.8724 65.4297,6.21094 C65.1328,6.54948 64.9844,7.01042 64.9844,7.59375 L64.9844,11 L63.9844,11 L63.9844,7.40625 C63.9844,6.82292 63.8828,6.39323 63.6797,6.11719 C63.4766,5.84115 63.1615,5.70313 62.7344,5.70313 C62.2344,5.70313 61.8359,5.8724 61.5391,6.21094 C61.2422,6.54948 61.0938,7.01042 61.0938,7.59375 L61.0938,11 L60.0938,11 L60.0938,4.98438 L61.0938,4.98438 L61.0938,5.92188 C61.3125,5.54688 61.5807,5.27344 61.8984,5.10156 C62.2161,4.92969 62.5885,4.84375 63.0156,4.84375 C63.4531,4.84375 63.8255,4.95313 64.1328,5.17188 C64.4401,5.39063 64.6667,5.71354 64.8125,6.14063 M73.5625,7.96875 C72.7708,7.96875 72.2214,8.0625 71.9141,8.25 C71.6068,8.4375 71.4531,8.75 71.4531,9.1875 C71.4531,9.53125 71.5677,9.80729 71.7969,10.0156 C72.026,10.224 72.3385,10.3281 72.7344,10.3281 C73.2865,10.3281 73.7266,10.1328 74.0547,9.74219 C74.3828,9.35156 74.5469,8.83854 74.5469,8.20313 L74.5469,7.96875 L73.5625,7.96875 M75.5313,7.5625 L75.5313,11 L74.5469,11 L74.5469,10.0938 C74.3281,10.4583 74.0495,10.7266 73.7109,10.8984 C73.3724,11.0703 72.9583,11.1563 72.4688,11.1563 C71.8542,11.1563 71.3646,10.9844 71,10.6406 C70.6354,10.2969 70.4531,9.83333 70.4531,9.25 C70.4531,8.57292 70.6797,8.0625 71.1328,7.71875 C71.5859,7.375 72.2656,7.20313 73.1719,7.20313 L74.5469,7.20313 L74.5469,7.10938 C74.5469,6.65104 74.3984,6.29688 74.1016,6.04688 C73.8047,5.79688 73.3854,5.67188 72.8438,5.67188 C72.5,5.67188 72.1641,5.71354 71.8359,5.79688 C71.5078,5.88021 71.1927,6.00521 70.8906,6.17188 L70.8906,5.26563 C71.2552,5.11979 71.6094,5.01302 71.9531,4.94531 C72.2969,4.8776 72.625,4.84375 72.9375,4.84375 C73.8125,4.84375 74.4635,5.06771 74.8906,5.51563 C75.3177,5.96354 75.5313,6.64583 75.5313,7.5625 M81.5313,7.92188 C81.5313,7.20313 81.3828,6.64844 81.0859,6.25781 C80.7891,5.86719 80.375,5.67188 79.8438,5.67188 C79.3125,5.67188 78.8984,5.86719 78.6016,6.25781 C78.3047,6.64844 78.1563,7.20313 78.1563,7.92188 C78.1563,8.63021 78.3047,9.18229 78.6016,9.57813 C78.8984,9.97396 79.3125,10.1719 79.8438,10.1719 C80.375,10.1719 80.7891,9.97396 81.0859,9.57813 C81.3828,9.18229 81.5313,8.63021 81.5313,7.92188 M82.5156,10.25 C82.5156,11.2813 82.2891,12.0443 81.8359,12.5391 C81.3828,13.0339 80.6875,13.2813 79.75,13.2813 C79.3958,13.2813 79.0651,13.2552 78.7578,13.2031 C78.4505,13.151 78.151,13.0729 77.8594,12.9688 L77.8594,12.0156 C78.151,12.1719 78.4375,12.2865 78.7188,12.3594 C79,12.4323 79.2917,12.4688 79.5938,12.4688 C80.2396,12.4688 80.724,12.2995 81.0469,11.9609 C81.3698,11.6224 81.5313,11.1146 81.5313,10.4375 L81.5313,9.9375 C81.3229,10.2917 81.0599,10.5573 80.7422,10.7344 C80.4245,10.9115 80.0417,11 79.5938,11 C78.8542,11 78.2604,10.7188 77.8125,10.1563 C77.3646,9.59375 77.1406,8.84896 77.1406,7.92188 C77.1406,6.99479 77.3646,6.25 77.8125,5.6875 C78.2604,5.125 78.8542,4.84375 79.5938,4.84375 C80.0417,4.84375 80.4245,4.92969 80.7422,5.10156 C81.0599,5.27344 81.3229,5.53646 81.5313,5.89063 L81.5313,4.98438 L82.5156,4.98438 L82.5156,10.25 M89.6875,7.75 L89.6875,8.23438 L85.1406,8.23438 C85.1823,8.91146 85.3854,9.42708 85.75,9.78125 C86.1146,10.1354 86.625,10.3125 87.2813,10.3125 C87.6667,10.3125 88.0365,10.2656 88.3906,10.1719 C88.7448,10.0781 89.099,9.94271 89.4531,9.76563 L89.4531,10.6875 C89.099,10.8438 88.7344,10.9609 88.3594,11.0391 C87.9844,11.1172 87.6094,11.1563 87.2344,11.1563 C86.2656,11.1563 85.5026,10.8776 84.9453,10.3203 C84.388,9.76302 84.1094,9.00521 84.1094,8.04688 C84.1094,7.06771 84.375,6.28906 84.9063,5.71094 C85.4375,5.13281 86.1563,4.84375 87.0625,4.84375 C87.8646,4.84375 88.5026,5.10417 88.9766,5.625 C89.4505,6.14583 89.6875,6.85417 89.6875,7.75 M88.6875,7.45313 C88.6875,6.91146 88.5391,6.47917 88.2422,6.15625 C87.9453,5.83333 87.5521,5.67188 87.0625,5.67188 C86.5104,5.67188 86.0703,5.82813 85.7422,6.14063 C85.4141,6.45313 85.224,6.89063 85.1719,7.45313 L88.6875,7.45313 M95.875,12.8281 L95.875,13.5938 L90.1563,13.5938 L90.1563,12.8281 L95.875,12.8281 M100.281,5.90625 C100.177,5.84375 100.06,5.79688 99.9297,5.76563 C99.7995,5.73438 99.6563,5.71875 99.5,5.71875 C98.9375,5.71875 98.5078,5.90104 98.2109,6.26563 C97.9141,6.63021 97.7656,7.15104 97.7656,7.82813 L97.7656,11 L96.7656,11 L96.7656,4.98438 L97.7656,4.98438 L97.7656,5.92188 C97.9635,5.55729 98.2292,5.28646 98.5625,5.10938 C98.8958,4.93229 99.3021,4.84375 99.7813,4.84375 C99.8542,4.84375 99.9297,4.84635 100.008,4.85156 C100.086,4.85677 100.177,4.86979 100.281,4.89063 L100.281,5.90625 M104.047,7.96875 C103.255,7.96875 102.706,8.0625 102.398,8.25 C102.091,8.4375 101.938,8.75 101.938,9.1875 C101.938,9.53125 102.052,9.80729 102.281,10.0156 C102.51,10.224 102.823,10.3281 103.219,10.3281 C103.771,10.3281 104.211,10.1328 104.539,9.74219 C104.867,9.35156 105.031,8.83854 105.031,8.20313 L105.031,7.96875 L104.047,7.96875 M106.016,7.5625 L106.016,11 L105.031,11 L105.031,10.0938 C104.813,10.4583 104.534,10.7266 104.195,10.8984 C103.857,11.0703 103.443,11.1563 102.953,11.1563 C102.339,11.1563 101.849,10.9844 101.484,10.6406 C101.12,10.2969 100.938,9.83333 100.938,9.25 C100.938,8.57292 101.164,8.0625 101.617,7.71875 C102.07,7.375 102.75,7.20313 103.656,7.20313 L105.031,7.20313 L105.031,7.10938 C105.031,6.65104 104.883,6.29688 104.586,6.04688 C104.289,5.79688 103.87,5.67188 103.328,5.67188 C102.984,5.67188 102.648,5.71354 102.32,5.79688 C101.992,5.88021 101.677,6.00521 101.375,6.17188 L101.375,5.26563 C101.74,5.11979 102.094,5.01302 102.438,4.94531 C102.781,4.8776 103.109,4.84375 103.422,4.84375 C104.297,4.84375 104.948,5.06771 105.375,5.51563 C105.802,5.96354 106.016,6.64583 106.016,7.5625 M107.484,4.98438 L108.469,4.98438 L109.703,9.67188 L110.938,4.98438 L112.094,4.98438 L113.328,9.67188 L114.563,4.98438 L115.547,4.98438 L113.984,11 L112.813,11 L111.516,6.0625 L110.219,11 L109.047,11 L107.484,4.98438"/>
</g>

<g fill="none" stroke="#000000" stroke-opacity="1" stroke-width="1" stroke-linecap="square" stroke-linejoin="bevel" transform="matrix(1.99897,0,0,1.99897,64.9664,84.9561)"
font-family="sans" font-size="11" font-weight="100" font-style="normal" 
>
</g>

<g fill="none" stroke="#000000" stroke-opacity="1" stroke-width="1" stroke-linecap="square" stroke-linejoin="bevel" transform="matrix(1.99897,0,0,1.99897,64.9664,84.9561)"
font-family="Ubuntu" font-size="11" font-weight="400" font-style="normal" 
>
</g>

<g fill="none" stroke="#000000" stroke-opacity="1" stroke-width="1" stroke-linecap="square" stroke-linejoin="bevel" transform="matrix(1.99897,0,0,1.99897,-14.9923,166.914)"
font-family="Ubuntu" font-size="11" font-weight="400" font-style="normal" 
>
</g>

<g fill="none" stroke="#000000" stroke-opacity="1" stroke-width="1" stroke-linecap="square" stroke-linejoin="bevel" transform="matrix(1.99897,0,0,1.99897,-14.9923,166.914)"
font-family="Ubuntu" font-size="11" font-weight="400" font-style="normal" 
>
</g>

<g fill="none" stroke="#000000" stroke-opacity="1" stroke-width="1" stroke-linecap="square" stroke-linejoin="bevel" transform="matrix(1.99897,0,0,1.99897,-14.9923,166.914)"
font-family="Ubuntu" font-size="11" font-weight="400" font-style="normal" 
>
</g>

<g fill="none" stroke="#000000" stroke-opacity="1" stroke-width="1" stroke-linecap="square" stroke-linejoin="round" transform="matrix(1.99897,0,0,1.99897,-14.9923,166.914)"
font-family="Ubuntu" font-size="11" font-weight="400" font-style="normal" 
>
<rect x="16.4992" y="-51.5" width="163.002" height="35"/>
</g>

<g fill="none" stroke="#000000" stroke-opacity="1" stroke-width="1" stroke-linecap="square" stroke-linejoin="bevel" transform="matrix(1.99897,0,0,1.99897,-14.9923,166.914)"
font-family="Ubuntu" font-size="11" font-weight="400" font-style="normal" 
>
</g>

<g fill="none" stroke="#000000" stroke-opacity="1" stroke-width="1" stroke-linecap="square" stroke-linejoin="bevel" transform="matrix(1.99897,0,0,1.99897,64.9664,84.9561)"
font-family="Ubuntu" font-size="11" font-weight="400" font-style="normal" 
>
</g>

<g fill="none" stroke="#000000" stroke-opacity="1" stroke-width="1" stroke-linecap="square" stroke-linejoin="bevel" transform="matrix(1.99897,0,0,1.99897,64.9664,84.9561)"
font-family="sans" font-size="11" font-weight="100" font-style="normal" 
>
</g>

<g fill="#000000" fill-opacity="1" stroke="#000000" stroke-opacity="1" stroke-width="1" stroke-linecap="square" stroke-linejoin="round" transform="matrix(1.99897,0,0,1.99897,64.9664,84.9561)"
font-family="sans" font-size="11" font-weight="100" font-style="normal" 
>
<path vector-effect="none" fill-rule="nonzero" d="M2.79688,2.98438 L3.70313,2.98438 L0.90625,12.0156 L0,12.0156 L2.79688,2.98438 M4.64063,8.625 L4.64063,4.98438 L5.625,4.98438 L5.625,8.59375 C5.625,9.15625 5.73698,9.58073 5.96094,9.86719 C6.1849,10.1536 6.51563,10.2969 6.95313,10.2969 C7.49479,10.2969 7.91927,10.1276 8.22656,9.78906 C8.53385,9.45052 8.6875,8.98438 8.6875,8.39063 L8.6875,4.98438 L9.67188,4.98438 L9.67188,11 L8.6875,11 L8.6875,10.0781 C8.44792,10.4427 8.16927,10.7135 7.85156,10.8906 C7.53385,11.0677 7.16667,11.1563 6.75,11.1563 C6.0625,11.1563 5.53906,10.9401 5.17969,10.5078 C4.82031,10.0755 4.64063,9.44792 4.64063,8.625 M15.5469,5.15625 L15.5469,6.09375 C15.2656,5.94792 14.974,5.84115 14.6719,5.77344 C14.3698,5.70573 14.0573,5.67188 13.7344,5.67188 C13.2448,5.67188 12.8776,5.7474 12.6328,5.89844 C12.388,6.04948 12.2656,6.27083 12.2656,6.5625 C12.2656,6.79167 12.3542,6.97135 12.5313,7.10156 C12.7083,7.23177 13.0625,7.35938 13.5938,7.48438 L13.9219,7.5625 C14.6302,7.70833 15.1302,7.91927 15.4219,8.19531 C15.7135,8.47135 15.8594,8.85417 15.8594,9.34375 C15.8594,9.89583 15.6406,10.3359 15.2031,10.6641 C14.7656,10.9922 14.1563,11.1563 13.375,11.1563 C13.0521,11.1563 12.7161,11.125 12.3672,11.0625 C12.0182,11 11.651,10.9063 11.2656,10.7813 L11.2656,9.76563 C11.6302,9.95313 11.9896,10.0938 12.3438,10.1875 C12.6979,10.2813 13.0521,10.3281 13.4063,10.3281 C13.8646,10.3281 14.2188,10.2474 14.4688,10.0859 C14.7188,9.92448 14.8438,9.70313 14.8438,9.42188 C14.8438,9.15104 14.7552,8.94271 14.5781,8.79688 C14.401,8.65104 14.0052,8.51563 13.3906,8.39063 L13.0469,8.29688 C12.4323,8.17188 11.9896,7.97656 11.7188,7.71094 C11.4479,7.44531 11.3125,7.07813 11.3125,6.60938 C11.3125,6.04688 11.513,5.61198 11.9141,5.30469 C12.3151,4.9974 12.8854,4.84375 13.625,4.84375 C13.9896,4.84375 14.3333,4.86979 14.6563,4.92188 C14.9792,4.97396 15.276,5.05208 15.5469,5.15625 M21.75,8 C21.75,7.27083 21.599,6.70052 21.2969,6.28906 C20.9948,5.8776 20.5833,5.67188 20.0625,5.67188 C19.5417,5.67188 19.1328,5.8776 18.8359,6.28906 C18.5391,6.70052 18.3906,7.27083 18.3906,8 C18.3906,8.72917 18.5391,9.29948 18.8359,9.71094 C19.1328,10.1224 19.5417,10.3281 20.0625,10.3281 C20.5833,10.3281 20.9948,10.1224 21.2969,9.71094 C21.599,9.29948 21.75,8.72917 21.75,8 M18.3906,5.89063 C18.5885,5.53646 18.8464,5.27344 19.1641,5.10156 C19.4818,4.92969 19.8646,4.84375 20.3125,4.84375 C21.0417,4.84375 21.6328,5.13281 22.0859,5.71094 C22.5391,6.28906 22.7656,7.05208 22.7656,8 C22.7656,8.94792 22.5391,9.71094 22.0859,10.2891 C21.6328,10.8672 21.0417,11.1563 20.3125,11.1563 C19.8646,11.1563 19.4818,11.0703 19.1641,10.8984 C18.8464,10.7266 18.5885,10.4583 18.3906,10.0938 L18.3906,11 L17.3906,11 L17.3906,2.64063 L18.3906,2.64063 L18.3906,5.89063 M28.9688,12.8281 L28.9688,13.5938 L23.25,13.5938 L23.25,12.8281 L28.9688,12.8281 M34.2188,5.21875 L34.2188,6.14063 C33.9479,5.98438 33.6719,5.86719 33.3906,5.78906 C33.1094,5.71094 32.8229,5.67188 32.5313,5.67188 C31.8958,5.67188 31.401,5.875 31.0469,6.28125 C30.6927,6.6875 30.5156,7.26042 30.5156,8 C30.5156,8.72917 30.6927,9.29688 31.0469,9.70313 C31.401,10.1094 31.8958,10.3125 32.5313,10.3125 C32.8229,10.3125 33.1094,10.276 33.3906,10.2031 C33.6719,10.1302 33.9479,10.0156 34.2188,9.85938 L34.2188,10.7656 C33.9479,10.901 33.6641,11 33.3672,11.0625 C33.0703,11.125 32.7552,11.1563 32.4219,11.1563 C31.5156,11.1563 30.7969,10.8724 30.2656,10.3047 C29.7344,9.73698 29.4688,8.96875 29.4688,8 C29.4688,7.02083 29.737,6.25 30.2734,5.6875 C30.8099,5.125 31.5469,4.84375 32.4844,4.84375 C32.7969,4.84375 33.0964,4.875 33.3828,4.9375 C33.6693,5 33.9479,5.09375 34.2188,5.21875 M38.6719,7.96875 C37.8802,7.96875 37.3307,8.0625 37.0234,8.25 C36.7161,8.4375 36.5625,8.75 36.5625,9.1875 C36.5625,9.53125 36.6771,9.80729 36.9063,10.0156 C37.1354,10.224 37.4479,10.3281 37.8438,10.3281 C38.3958,10.3281 38.8359,10.1328 39.1641,9.74219 C39.4922,9.35156 39.6563,8.83854 39.6563,8.20313 L39.6563,7.96875 L38.6719,7.96875 M40.6406,7.5625 L40.6406,11 L39.6563,11 L39.6563,10.0938 C39.4375,10.4583 39.1589,10.7266 38.8203,10.8984 C38.4818,11.0703 38.0677,11.1563 37.5781,11.1563 C36.9635,11.1563 36.474,10.9844 36.1094,10.6406 C35.7448,10.2969 35.5625,9.83333 35.5625,9.25 C35.5625,8.57292 35.7891,8.0625 36.2422,7.71875 C36.6953,7.375 37.375,7.20313 38.2813,7.20313 L39.6563,7.20313 L39.6563,7.10938 C39.6563,6.65104 39.5078,6.29688 39.2109,6.04688 C38.9141,5.79688 38.4948,5.67188 37.9531,5.67188 C37.6094,5.67188 37.2734,5.71354 36.9453,5.79688 C36.6172,5.88021 36.3021,6.00521 36,6.17188 L36,5.26563 C36.3646,5.11979 36.7188,5.01302 37.0625,4.94531 C37.4063,4.8776 37.7344,4.84375 38.0469,4.84375 C38.9219,4.84375 39.5729,5.06771 40,5.51563 C40.4271,5.96354 40.6406,6.64583 40.6406,7.5625 M47.3594,6.14063 C47.6094,5.69271 47.9063,5.36458 48.25,5.15625 C48.5938,4.94792 49,4.84375 49.4688,4.84375 C50.0938,4.84375 50.5755,5.0625 50.9141,5.5 C51.2526,5.9375 51.4219,6.5625 51.4219,7.375 L51.4219,11 L50.4219,11 L50.4219,7.40625 C50.4219,6.82292 50.3203,6.39323 50.1172,6.11719 C49.9141,5.84115 49.6042,5.70313 49.1875,5.70313 C48.6771,5.70313 48.2734,5.8724 47.9766,6.21094 C47.6797,6.54948 47.5313,7.01042 47.5313,7.59375 L47.5313,11 L46.5313,11 L46.5313,7.40625 C46.5313,6.82292 46.4297,6.39323 46.2266,6.11719 C46.0234,5.84115 45.7083,5.70313 45.2813,5.70313 C44.7813,5.70313 44.3828,5.8724 44.0859,6.21094 C43.7891,6.54948 43.6406,7.01042 43.6406,7.59375 L43.6406,11 L42.6406,11 L42.6406,4.98438 L43.6406,4.98438 L43.6406,5.92188 C43.8594,5.54688 44.1276,5.27344 44.4453,5.10156 C44.763,4.92969 45.1354,4.84375 45.5625,4.84375 C46,4.84375 46.3724,4.95313 46.6797,5.17188 C46.987,5.39063 47.2135,5.71354 47.3594,6.14063 M55.1406,2.98438 L56.0469,2.98438 L53.25,12.0156 L52.3438,12.0156 L55.1406,2.98438 M57.0781,4.98438 L58.0781,4.98438 L58.0781,11 L57.0781,11 L57.0781,4.98438 M57.0781,2.64063 L58.0781,2.64063 L58.0781,3.89063 L57.0781,3.89063 L57.0781,2.64063 M64.8125,6.14063 C65.0625,5.69271 65.3594,5.36458 65.7031,5.15625 C66.0469,4.94792 66.4531,4.84375 66.9219,4.84375 C67.5469,4.84375 68.0286,5.0625 68.3672,5.5 C68.7057,5.9375 68.875,6.5625 68.875,7.375 L68.875,11 L67.875,11 L67.875,7.40625 C67.875,6.82292 67.7734,6.39323 67.5703,6.11719 C67.3672,5.84115 67.0573,5.70313 66.6406,5.70313 C66.1302,5.70313 65.7266,5.8724 65.4297,6.21094 C65.1328,6.54948 64.9844,7.01042 64.9844,7.59375 L64.9844,11 L63.9844,11 L63.9844,7.40625 C63.9844,6.82292 63.8828,6.39323 63.6797,6.11719 C63.4766,5.84115 63.1615,5.70313 62.7344,5.70313 C62.2344,5.70313 61.8359,5.8724 61.5391,6.21094 C61.2422,6.54948 61.0938,7.01042 61.0938,7.59375 L61.0938,11 L60.0938,11 L60.0938,4.98438 L61.0938,4.98438 L61.0938,5.92188 C61.3125,5.54688 61.5807,5.27344 61.8984,5.10156 C62.2161,4.92969 62.5885,4.84375 63.0156,4.84375 C63.4531,4.84375 63.8255,4.95313 64.1328,5.17188 C64.4401,5.39063 64.6667,5.71354 64.8125,6.14063 M73.5625,7.96875 C72.7708,7.96875 72.2214,8.0625 71.9141,8.25 C71.6068,8.4375 71.4531,8.75 71.4531,9.1875 C71.4531,9.53125 71.5677,9.80729 71.7969,10.0156 C72.026,10.224 72.3385,10.3281 72.7344,10.3281 C73.2865,10.3281 73.7266,10.1328 74.0547,9.74219 C74.3828,9.35156 74.5469,8.83854 74.5469,8.20313 L74.5469,7.96875 L73.5625,7.96875 M75.5313,7.5625 L75.5313,11 L74.5469,11 L74.5469,10.0938 C74.3281,10.4583 74.0495,10.7266 73.7109,10.8984 C73.3724,11.0703 72.9583,11.1563 72.4688,11.1563 C71.8542,11.1563 71.3646,10.9844 71,10.6406 C70.6354,10.2969 70.4531,9.83333 70.4531,9.25 C70.4531,8.57292 70.6797,8.0625 71.1328,7.71875 C71.5859,7.375 72.2656,7.20313 73.1719,7.20313 L74.5469,7.20313 L74.5469,7.10938 C74.5469,6.65104 74.3984,6.29688 74.1016,6.04688 C73.8047,5.79688 73.3854,5.67188 72.8438,5.67188 C72.5,5.67188 72.1641,5.71354 71.8359,5.79688 C71.5078,5.88021 71.1927,6.00521 70.8906,6.17188 L70.8906,5.26563 C71.2552,5.11979 71.6094,5.01302 71.9531,4.94531 C72.2969,4.8776 72.625,4.84375 72.9375,4.84375 C73.8125,4.84375 74.4635,5.06771 74.8906,5.51563 C75.3177,5.96354 75.5313,6.64583 75.5313,7.5625 M81.5313,7.92188 C81.5313,7.20313 81.3828,6.64844 81.0859,6.25781 C80.7891,5.86719 80.375,5.67188 79.8438,5.67188 C79.3125,5.67188 78.8984,5.86719 78.6016,6.25781 C78.3047,6.64844 78.1563,7.20313 78.1563,7.92188 C78.1563,8.63021 78.3047,9.18229 78.6016,9.57813 C78.8984,9.97396 79.3125,10.1719 79.8438,10.1719 C80.375,10.1719 80.7891,9.97396 81.0859,9.57813 C81.3828,9.18229 81.5313,8.63021 81.5313,7.92188 M82.5156,10.25 C82.5156,11.2813 82.2891,12.0443 81.8359,12.5391 C81.3828,13.0339 80.6875,13.2813 79.75,13.2813 C79.3958,13.2813 79.0651,13.2552 78.7578,13.2031 C78.4505,13.151 78.151,13.0729 77.8594,12.9688 L77.8594,12.0156 C78.151,12.1719 78.4375,12.2865 78.7188,12.3594 C79,12.4323 79.2917,12.4688 79.5938,12.4688 C80.2396,12.4688 80.724,12.2995 81.0469,11.9609 C81.3698,11.6224 81.5313,11.1146 81.5313,10.4375 L81.5313,9.9375 C81.3229,10.2917 81.0599,10.5573 80.7422,10.7344 C80.4245,10.9115 80.0417,11 79.5938,11 C78.8542,11 78.2604,10.7188 77.8125,10.1563 C77.3646,9.59375 77.1406,8.84896 77.1406,7.92188 C77.1406,6.99479 77.3646,6.25 77.8125,5.6875 C78.2604,5.125 78.8542,4.84375 79.5938,4.84375 C80.0417,4.84375 80.4245,4.92969 80.7422,5.10156 C81.0599,5.27344 81.3229,5.53646 81.5313,5.89063 L81.5313,4.98438 L82.5156,4.98438 L82.5156,10.25 M89.6875,7.75 L89.6875,8.23438 L85.1406,8.23438 C85.1823,8.91146 85.3854,9.42708 85.75,9.78125 C86.1146,10.1354 86.625,10.3125 87.2813,10.3125 C87.6667,10.3125 88.0365,10.2656 88.3906,10.1719 C88.7448,10.0781 89.099,9.94271 89.4531,9.76563 L89.4531,10.6875 C89.099,10.8438 88.7344,10.9609 88.3594,11.0391 C87.9844,11.1172 87.6094,11.1563 87.2344,11.1563 C86.2656,11.1563 85.5026,10.8776 84.9453,10.3203 C84.388,9.76302 84.1094,9.00521 84.1094,8.04688 C84.1094,7.06771 84.375,6.28906 84.9063,5.71094 C85.4375,5.13281 86.1563,4.84375 87.0625,4.84375 C87.8646,4.84375 88.5026,5.10417 88.9766,5.625 C89.4505,6.14583 89.6875,6.85417 89.6875,7.75 M88.6875,7.45313 C88.6875,6.91146 88.5391,6.47917 88.2422,6.15625 C87.9453,5.83333 87.5521,5.67188 87.0625,5.67188 C86.5104,5.67188 86.0703,5.82813 85.7422,6.14063 C85.4141,6.45313 85.224,6.89063 85.1719,7.45313 L88.6875,7.45313 M95.875,12.8281 L95.875,13.5938 L90.1563,13.5938 L90.1563,12.8281 L95.875,12.8281 M100.281,5.90625 C100.177,5.84375 100.06,5.79688 99.9297,5.76563 C99.7995,5.73438 99.6563,5.71875 99.5,5.71875 C98.9375,5.71875 98.5078,5.90104 98.2109,6.26563 C97.9141,6.63021 97.7656,7.15104 97.7656,7.82813 L97.7656,11 L96.7656,11 L96.7656,4.98438 L97.7656,4.98438 L97.7656,5.92188 C97.9635,5.55729 98.2292,5.28646 98.5625,5.10938 C98.8958,4.93229 99.3021,4.84375 99.7813,4.84375 C99.8542,4.84375 99.9297,4.84635 100.008,4.85156 C100.086,4.85677 100.177,4.86979 100.281,4.89063 L100.281,5.90625 M104.047,7.96875 C103.255,7.96875 102.706,8.0625 102.398,8.25 C102.091,8.4375 101.938,8.75 101.938,9.1875 C101.938,9.53125 102.052,9.80729 102.281,10.0156 C102.51,10.224 102.823,10.3281 103.219,10.3281 C103.771,10.3281 104.211,10.1328 104.539,9.74219 C104.867,9.35156 105.031,8.83854 105.031,8.20313 L105.031,7.96875 L104.047,7.96875 M106.016,7.5625 L106.016,11 L105.031,11 L105.031,10.0938 C104.813,10.4583 104.534,10.7266 104.195,10.8984 C103.857,11.0703 103.443,11.1563 102.953,11.1563 C102.339,11.1563 101.849,10.9844 101.484,10.6406 C101.12,10.2969 100.938,9.83333 100.938,9.25 C100.938,8.57292 101.164,8.0625 101.617,7.71875 C102.07,7.375 102.75,7.20313 103.656,7.20313 L105.031,7.20313 L105.031,7.10938 C105.031,6.65104 104.883,6.29688 104.586,6.04688 C104.289,5.79688 103.87,5.67188 103.328,5.67188 C102.984,5.67188 102.648,5.71354 102.32,5.79688 C101.992,5.88021 101.677,6.00521 101.375,6.17188 L101.375,5.26563 C101.74,5.11979 102.094,5.01302 102.438,4.94531 C102.781,4.8776 103.109,4.84375 103.422,4.84375 C104.297,4.84375 104.948,5.06771 105.375,5.51563 C105.802,5.96354 106.016,6.64583 106.016,7.5625 M107.484,4.98438 L108.469,4.98438 L109.703,9.67188 L110.938,4.98438 L112.094,4.98438 L113.328,9.67188 L114.563,4.98438 L115.547,4.98438 L113.984,11 L112.813,11 L111.516,6.0625 L110.219,11 L109.047,11 L107.484,4.98438"/>
</g>

<g fill="none" stroke="#000000" stroke-opacity="1" stroke-width="1" stroke-linecap="square" stroke-linejoin="bevel" transform="matrix(1.99897,0,0,1.99897,64.9664,84.9561)"
font-family="sans" font-size="11" font-weight="100" font-style="normal" 
>
</g>

<g fill="none" stroke="#000000" stroke-opacity="1" stroke-width="1" stroke-linecap="square" stroke-linejoin="bevel" transform="matrix(1.99897,0,0,1.99897,64.9664,84.9561)"
font-family="Ubuntu" font-size="11" font-weight="400" font-style="normal" 
>
</g>

<g fill="none" stroke="#000000" stroke-opacity="1" stroke-width="1" stroke-linecap="square" stroke-linejoin="bevel" transform="matrix(1.99897,0,0,1.99897,-14.9923,166.914)"
font-family="Ubuntu" font-size="11" font-weight="400" font-style="normal" 
>
</g>

<g fill="none" stroke="#000000" stroke-opacity="1" stroke-width="1" stroke-linecap="square" stroke-linejoin="bevel" transform="matrix(1.99897,0,0,1.99897,-14.9923,166.914)"
font-family="Ubuntu" font-size="11" font-weight="400" font-style="normal" 
>
</g>

<g fill="none" stroke="#000000" stroke-opacity="1" stroke-width="1" stroke-linecap="square" stroke-linejoin="bevel" transform="matrix(1.99897,0,0,1.99897,-14.9923,166.914)"
font-family="Ubuntu" font-size="11" font-weight="400" font-style="normal" 
>
</g>

<g fill="none" stroke="#000000" stroke-opacity="1" stroke-width="1" stroke-linecap="square" stroke-linejoin="round" transform="matrix(1.99897,0,0,1.99897,-14.9923,166.914)"
font-family="Ubuntu" font-size="11" font-weight="400" font-style="normal" 
>
<ellipse cx="279.84" cy="-34" rx="83.344" ry="17.5"/>
</g>

<g fill="none" stroke="#000000" stroke-opacity="1" stroke-width="1" stroke-linecap="square" stroke-linejoin="bevel" transform="matrix(1.99897,0,0,1.99897,-14.9923,166.914)"
font-family="Ubuntu" font-size="11" font-weight="400" font-style="normal" 
>
</g>

<g fill="none" stroke="#000000" stroke-opacity="1" stroke-width="1" stroke-linecap="square" stroke-linejoin="bevel" transform="matrix(1.99897,0,0,1.99897,454.445,84.9561)"
font-family="Ubuntu" font-size="11" font-weight="400" font-style="normal" 
>
</g>

<g fill="none" stroke="#000000" stroke-opacity="1" stroke-width="1" stroke-linecap="square" stroke-linejoin="bevel" transform="matrix(1.99897,0,0,1.99897,454.445,84.9561)"
font-family="sans" font-size="11" font-weight="100" font-style="normal" 
>
</g>

<g fill="#000000" fill-opacity="1" stroke="#000000" stroke-opacity="1" stroke-width="1" stroke-linecap="square" stroke-linejoin="round" transform="matrix(1.99897,0,0,1.99897,454.445,84.9561)"
font-family="sans" font-size="11" font-weight="100" font-style="normal" 
>
<path vector-effect="none" fill-rule="nonzero" d="M2.79688,2.98438 L3.70313,2.98438 L0.90625,12.0156 L0,12.0156 L2.79688,2.98438 M9.0625,5.21875 L9.0625,6.14063 C8.79167,5.98438 8.51563,5.86719 8.23438,5.78906 C7.95313,5.71094 7.66667,5.67188 7.375,5.67188 C6.73958,5.67188 6.24479,5.875 5.89063,6.28125 C5.53646,6.6875 5.35938,7.26042 5.35938,8 C5.35938,8.72917 5.53646,9.29688 5.89063,9.70313 C6.24479,10.1094 6.73958,10.3125 7.375,10.3125 C7.66667,10.3125 7.95313,10.276 8.23438,10.2031 C8.51563,10.1302 8.79167,10.0156 9.0625,9.85938 L9.0625,10.7656 C8.79167,10.901 8.50781,11 8.21094,11.0625 C7.91406,11.125 7.59896,11.1563 7.26563,11.1563 C6.35938,11.1563 5.64063,10.8724 5.10938,10.3047 C4.57813,9.73698 4.3125,8.96875 4.3125,8 C4.3125,7.02083 4.58073,6.25 5.11719,5.6875 C5.65365,5.125 6.39063,4.84375 7.32813,4.84375 C7.64063,4.84375 7.9401,4.875 8.22656,4.9375 C8.51302,5 8.79167,5.09375 9.0625,5.21875 M13.5156,7.96875 C12.724,7.96875 12.1745,8.0625 11.8672,8.25 C11.5599,8.4375 11.4063,8.75 11.4063,9.1875 C11.4063,9.53125 11.5208,9.80729 11.75,10.0156 C11.9792,10.224 12.2917,10.3281 12.6875,10.3281 C13.2396,10.3281 13.6797,10.1328 14.0078,9.74219 C14.3359,9.35156 14.5,8.83854 14.5,8.20313 L14.5,7.96875 L13.5156,7.96875 M15.4844,7.5625 L15.4844,11 L14.5,11 L14.5,10.0938 C14.2813,10.4583 14.0026,10.7266 13.6641,10.8984 C13.3255,11.0703 12.9115,11.1563 12.4219,11.1563 C11.8073,11.1563 11.3177,10.9844 10.9531,10.6406 C10.5885,10.2969 10.4063,9.83333 10.4063,9.25 C10.4063,8.57292 10.6328,8.0625 11.0859,7.71875 C11.5391,7.375 12.2188,7.20313 13.125,7.20313 L14.5,7.20313 L14.5,7.10938 C14.5,6.65104 14.3516,6.29688 14.0547,6.04688 C13.7578,5.79688 13.3385,5.67188 12.7969,5.67188 C12.4531,5.67188 12.1172,5.71354 11.7891,5.79688 C11.4609,5.88021 11.1458,6.00521 10.8438,6.17188 L10.8438,5.26563 C11.2083,5.11979 11.5625,5.01302 11.9063,4.94531 C12.25,4.8776 12.5781,4.84375 12.8906,4.84375 C13.7656,4.84375 14.4167,5.06771 14.8438,5.51563 C15.2708,5.96354 15.4844,6.64583 15.4844,7.5625 M22.2031,6.14063 C22.4531,5.69271 22.75,5.36458 23.0938,5.15625 C23.4375,4.94792 23.8438,4.84375 24.3125,4.84375 C24.9375,4.84375 25.4193,5.0625 25.7578,5.5 C26.0964,5.9375 26.2656,6.5625 26.2656,7.375 L26.2656,11 L25.2656,11 L25.2656,7.40625 C25.2656,6.82292 25.1641,6.39323 24.9609,6.11719 C24.7578,5.84115 24.4479,5.70313 24.0313,5.70313 C23.5208,5.70313 23.1172,5.8724 22.8203,6.21094 C22.5234,6.54948 22.375,7.01042 22.375,7.59375 L22.375,11 L21.375,11 L21.375,7.40625 C21.375,6.82292 21.2734,6.39323 21.0703,6.11719 C20.8672,5.84115 20.5521,5.70313 20.125,5.70313 C19.625,5.70313 19.2266,5.8724 18.9297,6.21094 C18.6328,6.54948 18.4844,7.01042 18.4844,7.59375 L18.4844,11 L17.4844,11 L17.4844,4.98438 L18.4844,4.98438 L18.4844,5.92188 C18.7031,5.54688 18.9714,5.27344 19.2891,5.10156 C19.6068,4.92969 19.9792,4.84375 20.4063,4.84375 C20.8438,4.84375 21.2161,4.95313 21.5234,5.17188 C21.8307,5.39063 22.0573,5.71354 22.2031,6.14063 M32.7969,12.8281 L32.7969,13.5938 L27.0781,13.5938 L27.0781,12.8281 L32.7969,12.8281 M38.4063,6.14063 C38.6563,5.69271 38.9531,5.36458 39.2969,5.15625 C39.6406,4.94792 40.0469,4.84375 40.5156,4.84375 C41.1406,4.84375 41.6224,5.0625 41.9609,5.5 C42.2995,5.9375 42.4688,6.5625 42.4688,7.375 L42.4688,11 L41.4688,11 L41.4688,7.40625 C41.4688,6.82292 41.3672,6.39323 41.1641,6.11719 C40.9609,5.84115 40.651,5.70313 40.2344,5.70313 C39.724,5.70313 39.3203,5.8724 39.0234,6.21094 C38.7266,6.54948 38.5781,7.01042 38.5781,7.59375 L38.5781,11 L37.5781,11 L37.5781,7.40625 C37.5781,6.82292 37.4766,6.39323 37.2734,6.11719 C37.0703,5.84115 36.7552,5.70313 36.3281,5.70313 C35.8281,5.70313 35.4297,5.8724 35.1328,6.21094 C34.8359,6.54948 34.6875,7.01042 34.6875,7.59375 L34.6875,11 L33.6875,11 L33.6875,4.98438 L34.6875,4.98438 L34.6875,5.92188 C34.9063,5.54688 35.1745,5.27344 35.4922,5.10156 C35.8099,4.92969 36.1823,4.84375 36.6094,4.84375 C37.0469,4.84375 37.4193,4.95313 37.7266,5.17188 C38.0339,5.39063 38.2604,5.71354 38.4063,6.14063 M46.7656,5.67188 C46.2344,5.67188 45.8151,5.88021 45.5078,6.29688 C45.2005,6.71354 45.0469,7.28125 45.0469,8 C45.0469,8.71875 45.1979,9.28385 45.5,9.69531 C45.8021,10.1068 46.224,10.3125 46.7656,10.3125 C47.2865,10.3125 47.7005,10.1068 48.0078,9.69531 C48.3151,9.28385 48.4688,8.71875 48.4688,8 C48.4688,7.28125 48.3151,6.71354 48.0078,6.29688 C47.7005,5.88021 47.2865,5.67188 46.7656,5.67188 M46.7656,4.84375 C47.6198,4.84375 48.2917,5.1224 48.7813,5.67969 C49.2708,6.23698 49.5156,7.01042 49.5156,8 C49.5156,8.97917 49.2708,9.75 48.7813,10.3125 C48.2917,10.875 47.6198,11.1563 46.7656,11.1563 C45.901,11.1563 45.224,10.875 44.7344,10.3125 C44.2448,9.75 44,8.97917 44,8 C44,7.01042 44.2448,6.23698 44.7344,5.67969 C45.224,5.1224 45.901,4.84375 46.7656,4.84375 M56.1406,7.375 L56.1406,11 L55.1563,11 L55.1563,7.40625 C55.1563,6.83333 55.0469,6.40625 54.8281,6.125 C54.6094,5.84375 54.276,5.70313 53.8281,5.70313 C53.2969,5.70313 52.8776,5.8724 52.5703,6.21094 C52.263,6.54948 52.1094,7.01042 52.1094,7.59375 L52.1094,11 L51.1094,11 L51.1094,4.98438 L52.1094,4.98438 L52.1094,5.92188 C52.3385,5.55729 52.6146,5.28646 52.9375,5.10938 C53.2604,4.93229 53.6302,4.84375 54.0469,4.84375 C54.7344,4.84375 55.2552,5.05729 55.6094,5.48438 C55.9635,5.91146 56.1406,6.54167 56.1406,7.375 M62.6875,12.8281 L62.6875,13.5938 L56.9688,13.5938 L56.9688,12.8281 L62.6875,12.8281 M68.6094,7.375 L68.6094,11 L67.625,11 L67.625,7.40625 C67.625,6.83333 67.5156,6.40625 67.2969,6.125 C67.0781,5.84375 66.7448,5.70313 66.2969,5.70313 C65.7656,5.70313 65.3464,5.8724 65.0391,6.21094 C64.7318,6.54948 64.5781,7.01042 64.5781,7.59375 L64.5781,11 L63.5781,11 L63.5781,4.98438 L64.5781,4.98438 L64.5781,5.92188 C64.8073,5.55729 65.0833,5.28646 65.4063,5.10938 C65.7292,4.93229 66.099,4.84375 66.5156,4.84375 C67.2031,4.84375 67.724,5.05729 68.0781,5.48438 C68.4323,5.91146 68.6094,6.54167 68.6094,7.375 M72.9219,5.67188 C72.3906,5.67188 71.9714,5.88021 71.6641,6.29688 C71.3568,6.71354 71.2031,7.28125 71.2031,8 C71.2031,8.71875 71.3542,9.28385 71.6563,9.69531 C71.9583,10.1068 72.3802,10.3125 72.9219,10.3125 C73.4427,10.3125 73.8568,10.1068 74.1641,9.69531 C74.4714,9.28385 74.625,8.71875 74.625,8 C74.625,7.28125 74.4714,6.71354 74.1641,6.29688 C73.8568,5.88021 73.4427,5.67188 72.9219,5.67188 M72.9219,4.84375 C73.776,4.84375 74.4479,5.1224 74.9375,5.67969 C75.4271,6.23698 75.6719,7.01042 75.6719,8 C75.6719,8.97917 75.4271,9.75 74.9375,10.3125 C74.4479,10.875 73.776,11.1563 72.9219,11.1563 C72.0573,11.1563 71.3802,10.875 70.8906,10.3125 C70.401,9.75 70.1563,8.97917 70.1563,8 C70.1563,7.01042 70.401,6.23698 70.8906,5.67969 C71.3802,5.1224 72.0573,4.84375 72.9219,4.84375 M81.2656,5.89063 L81.2656,2.64063 L82.25,2.64063 L82.25,11 L81.2656,11 L81.2656,10.0938 C81.0573,10.4583 80.7943,10.7266 80.4766,10.8984 C80.1589,11.0703 79.776,11.1563 79.3281,11.1563 C78.6094,11.1563 78.0208,10.8672 77.5625,10.2891 C77.1042,9.71094 76.875,8.94792 76.875,8 C76.875,7.05208 77.1042,6.28906 77.5625,5.71094 C78.0208,5.13281 78.6094,4.84375 79.3281,4.84375 C79.776,4.84375 80.1589,4.92969 80.4766,5.10156 C80.7943,5.27344 81.0573,5.53646 81.2656,5.89063 M77.8906,8 C77.8906,8.72917 78.0417,9.29948 78.3438,9.71094 C78.6458,10.1224 79.0573,10.3281 79.5781,10.3281 C80.099,10.3281 80.5104,10.1224 80.8125,9.71094 C81.1146,9.29948 81.2656,8.72917 81.2656,8 C81.2656,7.27083 81.1146,6.70052 80.8125,6.28906 C80.5104,5.8776 80.099,5.67188 79.5781,5.67188 C79.0573,5.67188 78.6458,5.8776 78.3438,6.28906 C78.0417,6.70052 77.8906,7.27083 77.8906,8 M89.4219,7.75 L89.4219,8.23438 L84.875,8.23438 C84.9167,8.91146 85.1198,9.42708 85.4844,9.78125 C85.849,10.1354 86.3594,10.3125 87.0156,10.3125 C87.401,10.3125 87.7708,10.2656 88.125,10.1719 C88.4792,10.0781 88.8333,9.94271 89.1875,9.76563 L89.1875,10.6875 C88.8333,10.8438 88.4688,10.9609 88.0938,11.0391 C87.7188,11.1172 87.3438,11.1563 86.9688,11.1563 C86,11.1563 85.237,10.8776 84.6797,10.3203 C84.1224,9.76302 83.8438,9.00521 83.8438,8.04688 C83.8438,7.06771 84.1094,6.28906 84.6406,5.71094 C85.1719,5.13281 85.8906,4.84375 86.7969,4.84375 C87.599,4.84375 88.237,5.10417 88.7109,5.625 C89.1849,6.14583 89.4219,6.85417 89.4219,7.75 M88.4219,7.45313 C88.4219,6.91146 88.2734,6.47917 87.9766,6.15625 C87.6797,5.83333 87.2865,5.67188 86.7969,5.67188 C86.2448,5.67188 85.8047,5.82813 85.4766,6.14063 C85.1484,6.45313 84.9583,6.89063 84.9063,7.45313 L88.4219,7.45313"/>
</g>

<g fill="none" stroke="#000000" stroke-opacity="1" stroke-width="1" stroke-linecap="square" stroke-linejoin="bevel" transform="matrix(1.99897,0,0,1.99897,454.445,84.9561)"
font-family="sans" font-size="11" font-weight="100" font-style="normal" 
>
</g>

<g fill="none" stroke="#000000" stroke-opacity="1" stroke-width="1" stroke-linecap="square" stroke-linejoin="bevel" transform="matrix(1.99897,0,0,1.99897,454.445,84.9561)"
font-family="Ubuntu" font-size="11" font-weight="400" font-style="normal" 
>
</g>

<g fill="none" stroke="#000000" stroke-opacity="1" stroke-width="1" stroke-linecap="square" stroke-linejoin="bevel" transform="matrix(1.99897,0,0,1.99897,-14.9923,166.914)"
font-family="Ubuntu" font-size="11" font-weight="400" font-style="normal" 
>
</g>

<g fill="none" stroke="#000000" stroke-opacity="1" stroke-width="1" stroke-linecap="square" stroke-linejoin="bevel" transform="matrix(1.99897,0,0,1.99897,-14.9923,166.914)"
font-family="Ubuntu" font-size="11" font-weight="400" font-style="normal" 
>
</g>

<g fill="none" stroke="#000000" stroke-opacity="1" stroke-width="1" stroke-linecap="square" stroke-linejoin="bevel" transform="matrix(1.99897,0,0,1.99897,-14.9923,166.914)"
font-family="Ubuntu" font-size="11" font-weight="400" font-style="normal" 
>
</g>

<g fill="none" stroke="#000000" stroke-opacity="1" stroke-width="1" stroke-linecap="square" stroke-linejoin="round" transform="matrix(1.99897,0,0,1.99897,-14.9923,166.914)"
font-family="Ubuntu" font-size="11" font-weight="400" font-style="normal" 
>
<path vector-effect="none" fill-rule="evenodd" d="M180.24,-34 C182.03,-34 183.83,-34 185.63,-34 "/>
</g>

<g fill="none" stroke="#000000" stroke-opacity="1" stroke-width="1" stroke-linecap="square" stroke-linejoin="bevel" transform="matrix(1.99897,0,0,1.99897,-14.9923,166.914)"
font-family="Ubuntu" font-size="11" font-weight="400" font-style="normal" 
>
</g>

<g fill="none" stroke="#000000" stroke-opacity="1" stroke-width="1" stroke-linecap="square" stroke-linejoin="bevel" transform="matrix(1.99897,0,0,1.99897,-14.9923,166.914)"
font-family="Ubuntu" font-size="11" font-weight="400" font-style="normal" 
>
</g>

<g fill="#000000" fill-opacity="1" stroke="#000000" stroke-opacity="1" stroke-width="1" stroke-linecap="square" stroke-linejoin="round" transform="matrix(1.99897,0,0,1.99897,-14.9923,166.914)"
font-family="Ubuntu" font-size="11" font-weight="400" font-style="normal" 
>
<path vector-effect="none" fill-rule="evenodd" d="M185.63,-34 L185.63,-30.3985 L195.92,-34 L185.63,-37.6015 L185.63,-34"/>
</g>

<g fill="none" stroke="#000000" stroke-opacity="1" stroke-width="1" stroke-linecap="square" stroke-linejoin="bevel" transform="matrix(1.99897,0,0,1.99897,-14.9923,166.914)"
font-family="Ubuntu" font-size="11" font-weight="400" font-style="normal" 
>
</g>

<g fill="none" stroke="#000000" stroke-opacity="1" stroke-width="1" stroke-linecap="square" stroke-linejoin="bevel" transform="matrix(1,0,0,1,0,0)"
font-family="Ubuntu" font-size="11" font-weight="400" font-style="normal" 
>
</g>
</g>
</svg>
